<?xml version="1.0" encoding="UTF-8"?>
<svg xmlns="http://www.w3.org/2000/svg" viewBox="0 225 563 365" width="563" height="365">
  <path d="M21.99 0.05C34.34 0.05 46.69 0.05 59.04 0.05C58.56 1.08 52.32 0.87 50.95 0.87C48.03 0.87 44.97 0.54 42.1 0.69C41.24 0.73 40.37 1.14 39.42 1.13C35.93 1.1 32.47 1.08 28.98 0.89C27.84 0.83 22.35 0.81 21.99 0.05ZM61 0.05C67.3 0.05 73.61 0.05 79.92 0.05C79.59 0.77 77.1 0.83 76.22 0.87C72.55 1.04 68.94 0.39 65.24 0.51C64.17 0.55 61.53 1.22 61 0.05ZM82.97 0.05C88.56 0.05 94.16 0.05 99.75 0.05C99.39 0.84 97.46 1.09 96.56 1.02C93.29 0.78 89.97 0.74 86.66 0.74C85.75 0.74 83.34 0.86 82.97 0.05ZM279.64 0.05C284.76 0.05 289.88 0.05 295 0.05C294.64 0.81 292.95 0.76 292.13 0.83C290.39 0.97 288.85 0.66 287.18 0.51C285.76 0.38 284.45 0.75 283.06 0.79C282.01 0.81 280.13 1.18 279.64 0.05ZM306.01 0.05C345.01 0.05 384.01 0.05 423 0.05C422.31 1.7 418.57 1.45 417.12 1.27C413.39 0.81 409.8 0.99 406.12 0.99C404.28 0.99 402.15 0.69 400.35 1.05C396.26 1.87 392.64 0.99 388.54 0.99C387.34 0.99 386.16 1.37 384.97 1.38C381.24 1.4 377.47 0.95 373.71 0.95C368.84 0.95 363.99 1.03 359.15 1.02C357.04 1.01 354.94 0.35 352.83 0.51C347.35 0.92 341.86 0.73 336.35 0.86C333.41 0.94 330.49 1.12 327.56 0.81C326.3 0.67 325 1.06 323.72 1.05C322.22 1.04 320.78 0.63 319.32 0.5C318.08 0.4 316.72 0.91 315.46 1C314.11 1.1 312.67 0.7 311.35 0.52C309.95 0.31 306.87 1.89 306.01 0.05ZM423.57 0.05C431.25 0.05 438.92 0.05 446.6 0.05C446.06 1.45 443.08 1.22 441.83 1.1C440.74 0.99 439.87 1.39 438.81 1.37C438.06 1.35 437.35 1.06 436.61 1C435.37 0.88 434.26 1.35 433.04 1.35C431.6 1.34 430.12 1.07 428.64 1.07C427.24 1.07 424.1 1.73 423.57 0.05ZM450.77 0.05C493.61 0.05 536.46 0.05 579.31 0.05C579.21 1.29 579.38 2.22 579.43 3.43C579.47 4.16 579.16 4.9 579.16 5.63C579.16 9.66 579.36 13.69 579.4 17.72C579.49 26.52 579.4 35.29 579.5 44.09C579.57 50.3 580.06 56.54 580.12 62.77C580.14 63.88 579.8 64.92 579.86 66.06C580.11 70.37 580.65 74.93 580.25 79.25C580.13 80.53 579.84 81.77 579.84 83.09C579.84 85.92 580.43 88.7 580.27 91.53C580.19 92.95 579.78 94.33 579.7 95.75C579.41 100.82 579.16 106.33 579.77 111.38C579.84 111.98 580.19 112.46 580.27 113.03C580.8 116.58 580.03 120.46 579.96 124.02C579.91 126.79 580.22 129.51 580.21 132.26C580.2 133.64 579.88 135.01 579.9 136.38C579.91 137.22 580.25 138.01 580.22 138.85C580.12 141.61 579.34 148.87 580.82 151.02C580.9 150.01 581.03 149.38 581.64 148.59C581.64 149.79 581.64 150.99 581.64 152.18C581.19 152.04 580.73 151.9 580.27 151.76C579.3 158.57 580.37 165.79 580.24 172.64C580.21 174.53 579.74 179.64 580.82 181.07C581.37 179.74 581.92 178.41 582.47 177.09C583.59 179.49 583.24 181.21 583.29 183.76C584.51 183.49 585.73 183.22 586.95 182.95C586.95 205.93 586.95 228.92 586.95 251.9C586.1 251.97 585.25 252.04 584.39 252.11C584.15 253.46 583.23 255.92 584.4 256.97C585.25 256.84 586.1 256.72 586.95 256.59C586.95 259.68 586.95 262.77 586.95 265.85C585.11 265.63 585.09 264.95 583.57 264.19C582.84 265.12 583.14 267.85 583.57 268.97C584.4 267.62 585.45 267.22 586.95 267.03C586.95 274.7 586.95 282.36 586.95 290.03C585.71 289.87 585.59 289.78 584.67 288.99C583.97 290.1 583.85 291.69 583.9 292.95C585.56 293.01 584.9 292.28 586.95 292.03C586.95 308.68 586.95 325.34 586.95 342C585.66 342.05 584.76 341.97 583.57 341.49C583.22 342.77 583.9 342.97 584.67 343.9C585.43 343.9 586.19 343.89 586.95 343.89C586.95 503.92 586.94 663.95 586.93 823.98C391.31 823.98 195.69 823.98 0.07 823.98C0.06 804.77 0.05 785.56 0.05 766.35C0.72 766.67 0.51 767.96 0.53 768.7C0.58 771.17 0.46 773.66 0.61 776.12C1.23 785.89 0.47 795.73 0.8 805.51C0.87 807.67 1.16 809.96 1.02 812.1C0.97 812.98 0.57 814.37 1.61 814.86C3.16 815.6 9.62 815.04 11.67 815.01C19.55 814.92 27.42 815.13 35.3 815.12C53.98 815.09 72.66 815.27 91.35 815.4C100.68 815.47 110.02 815.14 119.35 815.22C183.46 815.71 247.53 815.2 311.63 814.76C351.47 814.48 391.29 814.35 431.12 813.79C466.66 813.29 502.15 813.49 537.69 812.82C546.21 812.66 554.74 812.92 563.24 812.42C566.07 812.26 570.45 813.13 572.22 810.46C571.15 808.64 570.71 807.94 571.03 805.79C571.1 805.32 571.35 804.89 571.32 804.42C571.21 802.93 569.96 801.17 570.04 799.74C570.1 798.76 570.8 798.08 570.62 797C570.47 796.19 569.78 795.34 569.78 794.52C569.78 793.24 570.53 792.11 570.36 790.68C570.23 789.61 569.64 788.78 569.75 787.66C569.86 786.6 570.53 785.76 570.35 784.64C570.28 784.22 569.98 783.92 569.93 783.53C569.78 782.42 570.34 781.11 570.31 779.97C570.22 777.23 569.92 774.5 570.26 771.73C570.39 770.76 570.76 769.73 570.66 768.7C570.51 767.26 569.82 765.81 569.76 764.31C569.68 762.06 570.22 759.61 570.38 757.36C570.51 755.44 569.65 753.79 569.62 751.95C569.61 751.16 570.1 750.5 570.22 749.74C570.4 748.59 569.78 748.01 569.68 747C569.55 745.73 570.24 744.69 570.25 743.43C570.29 740.85 569.52 738.3 569.4 735.74C569.36 734.81 569.76 733.97 569.68 732.99C569.59 732.02 569.21 731.29 569.41 730.26C569.78 728.33 570.39 726.79 570.22 724.75C570.09 723.19 569.16 721.85 568.85 720.36C570.18 719.03 569.54 717.39 569.4 715.69C569.12 712.34 569.68 708.93 569.68 705.53C569.67 702.67 569.27 699.84 569.13 697.01C569.06 695.68 569.47 694.69 569.61 693.43C569.81 691.76 569.16 690.33 569.13 688.77C569.12 688.19 569.41 687.69 569.47 687.12C569.76 684.64 569.74 681.93 569.83 679.43C569.92 677.08 568.62 674.55 568.95 672.3C569.32 669.79 568.84 667.13 569.22 664.61C569.54 662.37 570.07 658.89 569.43 656.65C569.28 656.13 568.64 655.65 568.3 655.26C570.61 652.96 568.71 653.26 568.86 650.87C568.92 650.03 569.52 649.23 569.62 648.38C569.86 646.42 568.96 644.97 568.86 643.17C568.82 642.44 569.51 641.97 569.62 641.24C569.77 640.23 568.99 639.49 569.18 638.55C569.9 635.05 569.95 630.86 569.39 627.25C569.29 626.55 568.87 625.75 568.87 625.04C568.87 624.41 569.39 623.79 569.45 623.12C569.63 621.28 569.05 619.67 568.91 617.9C568.8 616.62 569.5 616.46 569.76 615.42C570.2 613.61 569.96 610.7 569.78 608.84C569.54 606.34 570 603.31 569.47 600.88C569.35 600.33 568.82 599.99 568.7 599.43C568.49 598.54 568.53 597.12 568.67 596.21C568.82 595.17 568.66 593.7 568.97 592.7C569.17 592.05 569.7 591.76 569.7 590.98C569.7 589.94 568.86 588.99 568.94 587.97C569.01 587.04 569.7 586.16 569.7 585.21C569.7 584.44 569.05 584.02 568.94 583.28C568.6 581.02 568.94 578.44 568.94 576.15C569.11 576 569.53 575.78 569.62 575.59C569.88 575 569.89 569.06 569.62 568.47C569.53 568.28 569.11 568.06 568.94 567.91C568.94 566.56 569.26 565.6 569.47 564.33C569.74 562.72 569.63 560.93 569.83 559.31C570.03 557.7 569.7 556.05 569.67 554.45C569.63 551.28 570 548 569.7 544.84C569.56 543.36 568.22 542.83 568.22 541.27C568.23 539.81 569.48 539.44 569.7 538.24C570.05 536.3 568.93 534.78 568.67 533.01C568.4 531.25 569.47 530.29 569.46 528.9C569.45 528.3 568.85 527.97 568.7 527.46C568.39 526.48 568.55 525.26 568.37 524.24C568.27 523.67 567.92 523.15 567.84 522.57C567.65 521.2 568.39 518.76 568.39 517.09C568.39 515.13 567.92 513.08 569.32 511.6C568.79 509.89 568.26 508.26 568.63 506.43C568.77 505.76 569.23 505.16 569.23 504.46C569.23 503.21 568.85 501.92 568.85 500.61C568.85 498.95 569.23 496.85 568.36 495.39C570.49 493.02 568.02 492.52 568.43 490.51C568.63 489.51 569.58 488.46 569.52 487.43C569.45 486.09 568.23 485.1 568.43 483.62C568.58 482.54 569.5 481.6 569.56 480.56C569.7 477.97 568.25 475.65 568.46 473.01C568.83 473.3 569.19 473.6 569.56 473.9C570.21 471.94 569.87 469.37 569.47 467.38C569.31 466.54 568.77 465.82 568.94 464.92C569.06 464.25 569.83 464.14 570.01 463.51C570.36 462.25 569.92 458.05 569.64 456.68C569.52 456.07 568.97 455.64 568.86 455.01C568.48 452.69 569.06 450.18 569.04 447.89C569.03 446.44 568.6 444.87 568.36 443.46C568.09 441.8 568 439.11 568.4 437.47C568.62 436.57 569.04 435.96 568.94 434.96C568.85 434.13 568.53 433.31 568.42 432.48C567.93 428.88 568.36 424.86 568.36 421.23C568.36 419.74 568.13 418.04 568.37 416.57C568.54 415.57 568.83 414.55 568.94 413.54C569.13 411.7 567.85 410.14 567.89 408.37C568.03 402.74 567.89 396.91 568.36 391.29C568.54 389.03 568.14 386.71 568.39 384.45C568.67 381.98 568.34 379.48 568.58 377C568.67 376.08 568.99 375.24 568.84 374.27C568.36 371.14 567.71 367.3 567.98 364.09C568.09 362.82 568.92 361.53 568.82 360.26C568.74 359.15 567.86 358.26 567.74 357.23C567.39 354.39 569.99 355.77 566.93 352.56C568.02 351.28 568.63 350.27 568.27 348.49C568.03 347.32 567.05 344.31 568.15 343.33C568.46 343.05 569.12 342.88 569.5 342.67C568.97 342.44 568.44 342.2 567.91 341.97C567.97 341.11 568.27 340.87 568.8 340.2C566.21 340.5 563.63 341.56 561.04 341.7C559.53 341.79 557.95 341.35 556.37 341.43C551.37 341.71 546.27 341.97 541.27 342.35C538.77 342.55 536.39 343.11 533.85 343.16C530.81 343.23 527.81 342.98 524.78 342.76C523.5 342.67 522.02 342.4 521 343.42C519.86 344.57 520.19 349.99 520.12 351.68C519.83 359.04 519.54 366.41 518.71 373.74C518.33 377.06 518.1 380.52 518.33 383.87C518.43 385.43 518.82 386.97 518.91 388.54C519.44 398.09 521.09 407.44 522.66 416.84C523.48 421.74 523.62 426.75 524.32 431.67C526.94 449.95 530.06 468.54 536.35 485.88C539.82 495.44 539.27 505.75 541.25 515.64C542.22 520.52 544.98 524.5 546.74 529.06C548.32 533.13 548.68 537.5 549.78 541.68C550.84 545.69 552.55 556.73 547.59 558.47C543.67 559.84 542.2 556.18 541.42 553.07C540.08 547.68 539.72 542.05 538.73 536.59C538.26 534 537.31 531.48 536.74 528.9C535.87 525.02 534.81 521.19 534.12 517.27C533.23 512.31 532.78 507.28 531.66 502.36C530.04 495.22 526.66 488.55 525.1 481.41C523.81 475.48 523.75 469.33 522.87 463.35C522.19 458.75 520.62 454.13 519.27 449.71C518.8 448.17 518.66 446.55 518.18 445.01C516.36 439.09 515.2 432.91 515.03 426.72C514.98 425.12 516.05 420.93 514.35 420.24C512.87 422.33 512.49 427.42 511.82 430.06C510.49 435.4 508.39 441.3 505.36 445.89C503.24 449.11 495.15 455.81 491.75 457.82C489.39 459.2 486.56 460.1 484.3 461.64C482.96 462.56 482.86 464.29 481.9 465.56C480.63 467.23 478.75 468.53 477.17 469.89C473.79 472.8 470.27 476.05 466.44 478.39C458.81 483.03 449.02 485.28 440.18 486.17C434.54 486.73 428.81 486.6 423.15 486.66C415.46 486.74 407.94 487.18 400.31 486.02C395.53 485.29 390.65 484.76 385.91 483.86C382.42 483.21 378.63 481.81 375.2 483.3C373.1 484.2 371.31 488.79 369.98 490.69C368.57 492.71 366.78 494.24 365.21 496.1C363.03 498.67 361.1 501.46 358.55 503.72C354.66 507.16 350.78 510.6 346.75 513.91C343.9 516.25 340.62 517.99 337.84 520.37C332.56 524.91 327.15 529.22 321.06 532.71C319.15 533.79 317.21 534.53 315.28 535.45C311.59 537.22 308.01 539.21 304.25 540.89C295.74 544.68 286.74 547.56 278.06 550.94C274.65 552.26 270.38 553.22 267.45 555.46C265.98 556.58 266.09 558.57 264.97 559.84C262.3 562.84 258.45 564.63 255.53 567.43C252.44 570.38 251.72 573.32 247.17 574.76C238.28 577.56 224.11 575.62 220.14 565.88C217.62 559.69 216.48 550.93 217.07 544.29C217.33 541.3 218.22 538.44 218.74 535.51C219.72 529.95 219.84 524.14 221.29 518.67C223.66 509.76 226.99 501.13 229.61 492.36C231.12 487.35 232.28 481.99 232.31 476.71C232.32 473.36 231.35 469.58 232.12 466.29C232.98 462.61 234.96 460.1 236.72 456.88C239.66 451.49 242.28 445.97 243.74 439.96C246.04 430.43 245.79 420.81 246.16 411.06C246.65 398.52 247.57 386 247.63 373.43C247.67 365.85 247.49 358.2 247.94 350.63C248.14 347.05 248.73 343.5 248.95 339.92C249.13 337.02 251.03 330.09 249.55 327.79C247.41 328.42 246 331.58 244.77 333.37C241.07 338.75 236.8 343.75 233.77 349.54C226.73 363 224.38 377.28 219.82 391.61C218.83 394.72 217.36 397.66 216.3 400.71C213.05 410.06 210.29 419.8 209.3 429.74C208.98 432.97 208.56 436.36 209.13 439.58C210.13 445.17 212.34 450.35 212.44 456.11C212.5 459.35 212.22 463.94 208.87 465.56C206.31 466.8 204.82 464.9 202.56 464.25C201.3 463.88 199.74 464.05 198.46 464.2C187.91 465.47 180.95 470.96 170.28 465.48C168.6 464.62 166.17 463.48 165.07 461.9C163.4 459.5 163.68 451.94 163.25 448.69C162.5 443 161.01 437.47 160 431.83C159.21 427.47 158.7 423.09 157.71 418.75C154.95 406.71 152.7 394.46 149.96 382.51C149.82 381.92 149.34 381.43 149.13 380.85C148.12 378.05 147.14 375.2 145.6 372.59C144.09 370.04 142.47 367.6 141.21 364.89C139.28 360.73 137.56 356.28 136.09 351.91C135.53 350.27 135.19 348.44 134.5 346.86C132.6 342.51 130.1 338.3 127.64 334.23C124.86 329.63 120.69 325.68 117.21 321.6C114.58 318.51 111.71 315.44 109.29 312.21C107.41 309.69 105.64 306.93 103.46 304.58C100.47 301.35 96.3 296.81 94.19 292.98C92.5 289.89 89.23 282.56 88.97 279.22C88.87 277.91 89.65 273.71 88.51 273.14C86.26 272.01 82.8 272.25 80.35 272.01C76.48 271.63 72.61 270.76 68.82 269.96C62.48 268.62 56.16 266.88 49.86 265.3C44.71 264.02 39.45 263.1 34.28 261.93C31.98 261.41 29.67 260.71 27.33 260.35C20.36 259.27 13.89 258.07 7.35 255.38C5.53 254.63 2.15 253.82 0.96 252.3C1.56 250.14 5.03 251.52 6.71 251.71C12.6 252.4 18.48 253.61 24.31 254.63C26.74 255.06 29.3 255 31.75 255.36C40.26 256.59 48.93 258.13 57.26 260.19C65.38 262.19 73.19 265.35 81.38 267.1C83.16 267.48 84.92 268.15 86.67 268.61C89.03 269.22 91.47 269.54 93.81 270.27C95.45 270.78 98 271.75 99.44 270.7C98.04 269.04 94.03 268.37 91.92 267.75C86.02 266.03 80.17 263.99 74.35 261.98C70.69 260.72 67.03 259.34 63.3 258.26C55.37 255.96 47.15 254.67 39.14 252.73C34.71 251.65 30.31 250.2 25.97 248.85C19.95 246.97 13.87 245.13 7.96 242.96C6 242.24 1.48 239.43 0.05 239.23C0.05 238.59 0.05 237.94 0.05 237.3C2.92 236.92 5.9 238.05 8.64 238.77C10.99 239.39 13.47 239.64 15.8 240.32C21.35 241.94 26.79 244.01 32.3 245.81C39.78 248.24 47.42 250.42 55.03 252.51C57.31 253.14 59.65 253.36 61.94 254.08C66.95 255.66 71.81 257.8 76.72 259.65C83.16 262.08 89.88 264.03 96.5 265.97C102.25 267.64 108.09 269.34 113.77 271.23C116.05 271.99 119.1 273.6 121.55 273.29C124.66 272.88 124.46 269.07 124.96 266.58C125.38 264.53 126.15 262.55 126.65 260.54C127.16 258.43 127.3 256.11 127.55 253.96C127.8 251.73 127.24 248.86 128.22 246.77C129 245.13 130.88 244.68 132.54 244.97C133.63 245.15 134.51 245.63 135.4 246.27C141.53 250.74 138.37 253.96 137.35 259.99C136.92 262.53 136.95 265.16 136.63 267.72C136.43 269.26 135.33 274.81 136.74 275.67C139.15 277.13 144.6 277.53 147.42 277.86C155.38 278.8 163.28 279.37 171.29 279.78C187.68 280.62 204.16 283.13 220.25 286.1C225.87 287.13 231.56 287.47 237.19 288.38C239.57 288.76 241.94 288.74 244.33 288.98C245.39 289.09 246.56 289.63 247.61 289.48C250.12 289.11 249.97 282.31 250.15 280.32C250.31 278.55 250.77 276.87 250.89 275.1C251.01 273.32 251.19 271.6 251.54 269.86C252.3 266.18 253.12 257.31 256.43 254.9C257.69 253.98 260.44 254.06 261.87 254.41C265.46 255.3 263.27 261.1 263.09 263.56C262.76 268.13 262.53 272.73 261.95 277.28C261.65 279.66 261.07 281.99 260.83 284.39C260.62 286.55 259.25 290.08 260.54 291.94C262.04 291.25 261.84 289.75 262.06 288.28C262.54 284.95 262.37 279.56 266.86 279.23C271.88 278.86 271.16 286.73 271.31 289.93C271.36 291.05 271.36 292.58 272.36 293.36C273.27 294.06 277.61 293.99 278.94 294.12C284.47 294.63 290.02 295.29 295.54 295.7C300.15 296.04 304.81 295.85 309.43 296.07C314.47 296.3 319.48 296.75 324.54 296.85C328.29 296.92 332.06 296.67 335.8 296.9C346.78 297.58 357.48 301.06 368.49 301.69C374.78 302.05 381.14 301.87 387.44 301.96C395.31 302.07 403.2 302.46 411.06 302.72C415.41 302.87 419.65 303.58 423.97 303.9C431.44 304.46 439.01 304.84 446.5 305.12C461.66 305.69 476.9 304.97 492.08 305.04C503.89 305.09 515.74 305.7 527.53 306.35C529.92 306.49 532.28 306.96 534.67 307.03C539.24 307.15 543.82 306.83 548.39 306.69C552.99 306.56 557.54 305.92 562.14 305.7C564.16 305.6 566.56 305.88 568.18 304.49C566.66 302.08 567.3 298.95 567.01 296.25C566.91 295.23 566.48 294.26 566.44 293.23C566.37 291.64 567.02 290.8 567.28 289.38C567.77 286.56 567.31 283.17 567.29 280.32C568.32 280.47 569.35 280.62 570.38 280.77C570.38 280.23 570.11 279.79 570.16 279.22C570.31 277.46 571.66 276.18 571.71 274.27C571.76 271.93 571.38 269.43 571.16 267.12C570.84 263.68 571.54 260.13 571.16 256.69C570.87 254.13 570.47 251.65 570.47 249C570.47 245.65 570.43 242.19 570.6 238.84C570.65 237.73 570.94 236.68 570.83 235.54C570.31 230.58 569.87 224.91 570.03 219.88C570.09 218.15 569.98 216.4 570.04 214.67C570.11 212.77 570.59 210.8 570.44 208.91C570.19 205.83 569.74 202.58 569.52 199.5C569.46 198.65 570.11 197.76 570.03 196.81C569.94 195.76 569.02 195.03 568.94 194.05C568.87 193.11 569.63 192.25 569.72 191.32C569.93 189.35 569.88 186.97 569.7 185C569.66 184.46 569.33 184.1 569.26 183.59C569.09 182.38 569.02 178.03 569.12 176.76C569.22 175.36 569.8 174.13 569.6 172.65C569.36 170.89 568.95 168.64 569.06 166.87C569.17 165.23 569.64 163.61 569.6 161.93C569.53 158.96 568.66 155.83 568.89 152.86C569.01 151.22 569.66 149.6 569.65 147.92C569.64 146.45 569 144.98 569.08 143.52C569.17 142.05 569.89 140.67 569.93 139.13C569.95 138.3 570.08 137.26 569.85 136.47C569.62 135.64 569.14 135.44 569.21 134.46C569.44 131.31 569.21 128.27 569.21 125.12C569.21 121.51 569.47 118.2 568.95 114.67C568.77 113.45 569.23 112.29 569.14 111.11C569.07 110.16 568.49 109.29 568.34 108.35C568.22 107.52 568.19 106.22 568.38 105.4C568.48 104.99 568.86 104.67 568.87 104.24C568.89 101.72 568.49 98.63 568.89 96.01C568.98 95.44 569.35 94.92 569.43 94.35C569.6 93.15 568.68 92.2 568.67 91.05C568.65 90.06 569.52 89.28 569.66 88.3C570.1 85.11 569.82 81.38 569.73 78.15C569.67 76.39 569.87 74.43 569.6 72.7C569.51 72.1 569.18 71.62 569.13 71.01C568.98 69.14 569.69 67.14 569.63 65.24C569.6 64.54 569.22 63.98 569.22 63.31C569.21 62.4 569.68 61.52 569.7 60.57C569.73 59.2 569.28 58.02 569.21 56.72C569.18 56.12 569.42 55.66 569.49 55.07C569.75 52.6 569.61 49.87 569.65 47.38C569.68 46.11 568.58 45.34 568.58 44.09C568.58 43.21 569.17 42.4 569.34 41.56C569.55 40.5 569.5 39.12 569.4 38.04C569.29 36.77 569.06 35.45 568.86 34.19C568.64 32.79 569.04 31.28 568.77 29.87C568.46 28.31 567.99 26.71 567.76 25.13C567.49 23.19 568.12 17.78 567.68 16.67C567.39 15.96 566.43 16.07 565.98 15.45C565.36 14.63 565.94 13.05 564.78 11.65C564.15 10.89 563.11 11.01 562.35 10.52C561.69 10.09 561.2 8.86 560.77 8.21C560.4 8.58 560.04 8.95 559.67 9.32C559.04 8.78 559.05 8.05 558.51 7.49C557.65 6.61 556.38 6.65 555.37 6.19C554.46 5.79 553.72 4.75 552.77 4.42C551.6 4.02 550.4 4.58 549.24 4.39C544.67 3.63 539.8 2.96 535.22 3.11C533.33 3.17 531.36 2.52 529.45 2.4C526.59 2.21 523.57 2.69 520.68 2.16C520.16 2.07 519.8 1.67 519.29 1.58C518.03 1.35 516.61 1.95 515.36 2.06C513.13 2.25 510.56 2.04 508.3 1.98C504.55 1.87 500.83 1.45 497.04 1.65C495.45 1.74 494.01 2 492.37 1.94C490.06 1.85 487.79 1.73 485.5 1.73C483.67 1.73 481.88 1.12 480.05 1.21C477.67 1.32 475.26 1.54 472.88 1.31C471.98 1.22 471.36 0.76 470.4 0.84C468.65 0.98 466.66 1.75 464.91 1.57C464.33 1.51 463.83 1.16 463.25 1.08C461.59 0.85 459.72 0.88 458.04 0.88C456.62 0.88 451.27 1.25 450.77 0.05ZM581.64 237.84C580.05 239.33 579.79 242.82 580.82 244.65C581.29 242.3 582.2 240.14 581.64 237.84ZM582.75 250.98C582 250.98 581.25 250.98 580.5 250.98C580.5 252.01 580.5 253.05 580.5 254.08C581.25 254.08 582 254.08 582.75 254.08C582.75 253.05 582.75 252.01 582.75 250.98ZM134.46 251.02C132.32 251.65 132.41 255.56 132.04 257.49C130.88 263.66 127.71 269.25 126.41 275.38C126.05 277.1 125.05 281.73 127.59 282.19C130.27 282.68 130.87 278.81 131.05 277.02C131.37 273.72 131.33 270.42 131.83 267.13C132.08 265.46 132.67 263.85 132.99 262.19C133.16 261.3 133.07 260.37 133.3 259.49C133.9 257.25 135.91 253.16 134.46 251.02ZM580.82 256.92C580.21 258.06 580.43 259.77 580.54 261.09C581.47 260.9 582.41 260.72 583.34 260.54C583.33 259.47 583.42 258.84 582.74 258.04C581.38 258 581.23 258.47 580.82 256.92ZM253.67 291.46C255.65 290.95 255.57 286.96 255.9 285.21C257.18 278.47 258.46 271.77 259.11 264.93C259.29 263.07 261.27 257.84 258.05 257.46C255.69 257.18 254.8 262.75 254.45 264.43C253.88 267.14 254.03 270.14 253.88 272.9C253.67 276.84 253.27 280.76 253.03 284.71C252.92 286.58 251.94 290.28 253.67 291.46ZM98.75 274.45C95.3 273.61 93.12 277.68 94.3 280.52C97.16 287.37 100.95 293.76 105.37 299.66C106.49 301.16 107.8 302.57 108.9 304.08C109.2 304.49 109.24 305 109.51 305.41C112.37 309.75 115.35 314.25 118.54 318.35C123.59 324.86 129.46 330.93 133.72 338.05C135.98 341.82 137.58 346.02 139.38 349.99C141.45 354.53 143.86 359.04 146.3 363.38C149.39 368.89 153.09 374.14 155.07 380.15C155.58 381.71 157.55 383.63 156.6 385.24C154.37 385.9 153.13 382.32 151.49 381.11C150.48 382.54 151.61 382.89 152.09 384.21C153.09 386.96 153.94 389.6 154.52 392.48C155.92 399.35 157.68 406.11 159.06 412.99C160.09 418.13 160.77 423.35 161.93 428.48C163.8 436.74 165.2 445.21 166.09 453.65C166.36 456.23 165.66 461.74 169.71 460.78C171.67 457.22 169.89 449.36 169.07 445.54C166.98 435.81 167.62 425.74 165.6 416.02C164.81 412.19 163.91 408.3 162.75 404.6C162.35 403.33 161.19 401.19 162.2 400.18C163.35 400.92 164.6 405.62 165.16 407.16C167.84 414.44 169.29 423.17 170.18 430.91C170.43 433.07 171.03 440.72 172.64 441.75C173.78 440.74 173.45 439.39 173.43 437.98C173.39 435.24 173.55 432.48 173.36 429.74C173.02 424.88 172.46 420.37 171.24 415.66C170.63 413.31 170.46 410.68 169.66 408.39C168.14 404.05 165.65 400.09 163.84 395.84C161.32 389.9 159.11 383.88 156.87 377.82C156.14 375.84 155.61 373.66 154.65 371.79C152.92 368.41 150.69 365.25 148.87 361.9C146.77 358.03 145.66 353.69 143.57 349.89C141.45 346.05 138.53 342.59 136.23 338.83C134.69 336.3 133.5 333.62 131.86 331.12C127.75 324.88 122.38 319.69 117.92 313.76C115.7 310.81 115.06 306.95 112.72 304.11C108.86 299.45 103.79 295.18 101.07 289.66C99.78 287.06 98.01 283.56 97.96 280.59C97.92 278.55 99.69 276.33 98.75 274.45ZM120.45 285.01C122.4 284.36 121.87 283.17 121.95 281.41C122 280.24 122.45 278.36 121.61 277.36C120.55 276.09 114.34 275.18 113.31 276.25C113.41 277.35 114.37 277.89 115.07 278.69C116.87 280.72 118.49 283.21 120.45 285.01ZM233.34 307.49C231.35 306.19 228.58 306.3 226.32 305.86C222.1 305.05 217.84 304.16 213.67 303.13C207.17 301.51 200.97 299.15 194.56 297.3C192.42 296.68 190.19 296.38 188.03 295.81C184.21 294.8 180.47 293.5 176.7 292.35C174.74 291.75 172.68 291.5 170.7 290.96C163.98 289.1 157.14 287.54 150.4 285.67C148 285 145.69 284.05 143.3 283.38C141.64 282.91 135.03 280.07 134.54 282.52C134.3 283.67 134.95 285.14 134.93 286.36C134.9 288.58 133.57 290.94 134.43 293.13C135.58 296.04 138.52 297.96 140.74 299.98C145.03 303.89 149.24 307.41 152.92 311.97C158.48 318.88 162.32 327.98 168.38 334.16C172.56 338.41 178.26 341.82 183.72 344.08C185.29 344.72 186.86 345.56 188.52 345.92C191.76 346.63 199.91 346.25 202.82 344.7C205.63 343.21 209.69 339.24 211.45 336.56C212.59 334.81 213.35 332.71 214.75 331.07C219.55 325.47 224.32 319.75 229.11 314.13C229.85 313.26 233.06 309.79 233.36 309.04C233.58 308.47 233.46 308.07 233.34 307.49ZM245.48 297.62C244.3 295.52 241.78 295.95 239.66 295.84C235.24 295.61 230.86 294.65 226.48 294.13C220.4 293.39 214.51 291.67 208.53 290.47C198 288.36 187.45 286.8 176.83 285.27C172.72 284.68 168.54 284.28 164.4 284.13C163.03 284.08 161.14 283.43 160.1 284.44C161.03 285.75 163.45 285.82 164.94 286.23C169.48 287.47 174.07 288.88 178.68 289.85C182.21 290.59 185.78 292.06 189.39 292.24C193.08 292.43 196.63 291.47 200.33 292.09C203.16 292.57 205.99 293.81 208.74 294.59C215.94 296.64 223.17 298.56 230.32 300.8C232.88 301.6 236.96 303.58 239.63 302.67C240.66 302.31 241.52 301.38 242.35 300.72C243.52 299.8 244.8 298.98 245.48 297.62ZM265.48 320.52C268.59 319.95 267.32 316.05 267.15 313.85C266.62 307.04 266.92 300.06 266.93 293.23C266.94 291.75 267.32 287.28 266.63 286.15C266.4 285.77 265.86 285.75 265.48 285.68C264.42 287.85 264.97 291.09 264.88 293.5C264.78 296.51 264.35 299.53 264.34 302.56C264.34 305.77 264.77 308.97 264.8 312.18C264.84 315.09 263.37 318.2 265.48 320.52ZM126.49 288.16C125.15 290.25 125.39 292.83 124.73 295.15C124.01 297.7 122.76 300.26 122.35 302.91C122.11 304.46 122.99 306.02 124.57 305.92C126.43 303.56 127.4 295.88 128.06 292.69C128.4 291.06 129.16 289.87 128.55 288.16C127.86 288.16 127.18 288.16 126.49 288.16ZM582.31 296.08C585.44 295.85 584.08 292.12 582.31 291.85C582.31 293.26 582.31 294.67 582.31 296.08ZM133.63 296.51C131.67 298.15 133.51 299.73 134.59 301.2C134.91 301.64 135.02 302.21 135.37 302.62C135.95 303.33 136.72 303.84 137.32 304.52C138.1 305.41 138.61 306.52 139.33 307.45C142.57 311.68 145.42 316.15 148.59 320.45C150.3 322.77 151.75 325.37 153.45 327.67C154.4 328.97 155.63 330.07 156.63 331.34C163.05 339.48 170.62 347.95 180.59 351.64C186.13 353.69 191.71 353.21 197.37 352.2C200.74 351.6 204.13 352.46 207.39 351.18C209.64 350.31 211.17 348.66 212.94 347.13C214.37 345.9 215.94 344.81 217.31 343.52C220.45 340.57 222.02 336.55 223.88 332.79C225.13 330.28 228.92 328.02 228.95 325.04C227.36 324.96 226.04 327.43 224.95 328.63C221.52 332.4 218.97 336.77 216.01 340.85C214.5 342.92 212.56 345.35 210.36 346.75C208.87 347.7 207.07 347.85 205.44 348.44C200.72 350.13 195.58 351.17 190.49 350.71C185.84 350.29 182.03 348.31 177.97 346.26C171.52 343.01 165.76 339.42 160.91 333.94C158.44 331.13 156.57 327.48 154.65 324.26C152.75 321.08 150.64 317.98 148.58 314.95C145.39 310.24 141.72 306.16 138.16 301.74C137.12 300.44 134.96 297.06 133.63 296.51ZM260.54 297.94C258.04 299.45 256.31 304.36 252.32 302.14C249.33 300.48 257.38 297.8 252.69 296.82C251.46 296.56 250.96 297.73 250.16 298.37C248 300.11 246.4 302.62 244.27 304.49C244.4 307.5 248.96 307.81 251.07 306.69C252.11 306.13 253.09 304.92 254.43 305.52C256.45 306.42 255.73 309.04 258.99 309.44C259.77 309.53 260.56 309.55 261.27 309.18C262.33 308.63 262.21 307.44 262.23 306.41C262.27 304.38 262.24 299.09 260.54 297.94ZM566.26 309.58C560.36 308.65 554.1 309.01 548.13 308.71C541.06 308.34 534.07 307.78 526.98 307.76C510.76 307.74 494.59 309.17 478.36 309.27C468.04 309.33 457.89 308.18 447.59 307.75C441.84 307.52 436.02 308.35 430.29 307.95C425.95 307.64 421.74 306.35 417.38 306.09C406.5 305.44 395.55 306.77 384.7 306.06C382.29 305.91 379.89 305.31 377.49 305.01C371.58 304.29 365.63 303.54 359.7 303C354.66 302.55 349.53 302.37 344.52 301.72C338.8 300.99 333.05 300.01 327.29 299.68C317.8 299.13 308.27 299.83 298.78 299.28C291.95 298.88 285.27 297.56 278.39 297.68C276.51 297.72 273.91 297.23 272.13 297.82C270.4 298.4 271.04 303.96 271.07 305.59C271.11 307.34 270.5 309.99 271.42 311.58C272.75 313.88 277.15 313.36 279.41 314.08C280.47 314.41 281.06 314.97 282.24 314.8C282.09 313.14 280.48 311.9 280.21 310.25C279.76 307.39 282.59 303.82 285.46 306.08C288.94 308.83 289.8 314.57 293.56 316.65C294.74 317.31 296.32 317.06 297.62 317.16C298.9 317.25 300.66 317.33 301.7 316.57C300.43 315.1 297.57 313.2 297.89 311.21C300.55 311.67 303.17 316.57 306.63 316.57C305.09 313.66 301.41 309.68 299.28 306.81C298.48 305.72 297.6 303.75 296.18 303.36C294.55 302.92 293.85 304.72 292.39 304.76C291.59 301.51 295.37 300.42 297.83 301.4C301.17 302.73 304.18 309.15 307.51 311.62C308.49 310.2 307.57 308.05 307.8 306.34C308.18 303.61 311.88 301.97 314.38 302.64C317.58 303.51 318.48 308.87 318.68 311.63C318.77 312.95 318.21 315.31 319.74 316.01C323.09 317.52 329.83 317.07 333.59 317.37C337.36 317.66 340.97 318.83 344.6 319.73C346.84 320.28 349.2 320.53 351.43 321.17C354.12 321.94 356.95 322.36 359.68 323.08C365.28 324.56 370.85 326.45 376.54 327.57C381.6 328.56 386.76 328.9 391.75 330.29C395.48 331.32 398.62 333.64 402.22 334.92C406.94 336.6 411.9 336.93 416.78 337.71C423.53 338.78 423.36 336.02 424.99 330.6C426.03 327.13 427.19 323.63 427.83 320.04C428.17 318.12 428.72 315.04 430.35 313.74C431.89 312.51 435.37 312.82 437.14 313.21C438.72 313.56 441.08 314.51 441.46 316.3C441.83 318.01 440.82 319.67 440.36 321.26C439.44 324.49 439.06 327.81 438.3 331.07C437.95 332.54 436.83 337.01 438.33 337.79C439.69 338.5 443.54 338.53 445.13 338.54C449.53 338.56 453.92 338.48 458.31 338.43C471.07 338.26 483.96 338.32 496.69 337.46C500.87 337.17 505.27 337.42 509.4 336.82C510.34 336.68 511.82 336.17 512.49 335.46C513.28 334.63 513.79 332.99 515.17 332.95C516.55 332.91 517.49 334.88 518.53 335.59C520.03 336.62 522.75 336.67 524.51 336.81C533.82 337.54 543.46 338.95 552.8 338.48C555.36 338.35 557.75 337.57 560.23 337.05C561.6 336.77 563.03 336.83 564.42 336.6C565.26 336.46 565.85 336.01 566.63 335.79C567.49 335.56 568.41 335.67 569.28 335.56C569 334.36 567.25 333.53 566.82 331.33C566.68 330.57 567.22 329.95 567.26 329.21C567.32 328.18 566.58 327.57 566.89 326.47C567.1 325.69 567.59 325.12 567.6 324.26C567.61 323.08 566.78 321.87 566.91 320.7C566.95 320.39 567.2 320.18 567.27 319.86C567.89 317.21 567.09 314.27 567.85 311.63C566.43 311.01 566.33 310.91 566.26 309.58ZM314.65 316.77C316.82 314.89 314.77 310.51 314.18 308.07C313.86 306.72 313.96 304.86 311.98 305.29C310.94 305.51 310.09 306.72 310.2 307.76C310.41 309.89 312.53 316.19 314.65 316.77ZM203.4 427.95C204.77 425.7 205.37 422.91 206.28 420.41C209.07 412.74 210.72 404.79 212.14 396.8C214.31 384.62 217.66 371.17 223.11 360.03C226.09 353.94 230.22 348.47 233.84 342.74C236.15 339.09 238.33 335.41 240.82 331.88C242.54 329.44 244.31 326.68 246.3 324.45C247.15 323.49 248.94 322.91 249.13 321.51C249.33 320.06 248.81 318.31 248.68 316.85C248.54 315.21 248.55 312.58 247.69 311.15C246.52 309.21 241.57 308.36 239.74 309.38C238.25 310.21 237.52 311.78 236.58 313.08C234.87 315.48 232.08 317.86 231.7 320.84C233.25 320.35 234.07 318.56 235.1 317.36C236.54 315.66 238.09 314.13 239.88 312.82C240.95 312.04 242.3 310.89 243.71 311.54C246.4 312.77 246.02 317.3 245.35 319.61C244.01 324.17 239.91 327.34 237.35 331.16C236.12 332.99 235 335.03 233.65 336.8C229.97 341.63 227.44 346.67 224.81 352.13C223.85 354.11 222.53 355.92 221.45 357.82C220.12 360.18 219.25 363.13 218.28 365.67C216.45 370.43 215.39 375.55 213.83 380.42C211.28 388.37 208.59 396.29 206.75 404.44C205.5 410.01 204.9 415.86 204.07 421.5C203.78 423.47 202.55 426.11 203.4 427.95ZM284.44 309.14C283.32 311.16 287.59 314.93 288.72 316.81C292.41 322.97 297.19 328.46 301.86 333.9C303.29 335.55 306.17 338.32 308.6 337.87C311.56 337.33 312.04 334.07 311.44 331.7C310.93 329.68 308.15 323.35 306.36 322.52C305.18 321.96 303.8 322.27 302.56 322.24C301.16 322.21 299.74 321.7 298.52 322.62C299.31 325.22 303.37 328.68 305.26 330.77C306.31 331.94 308.03 332.98 307.8 334.7C305.56 336.01 302.98 331.64 301.39 330.26C297.28 326.68 294.95 322.69 291.82 318.39C291.07 317.34 290.11 316.42 289.35 315.37C287.85 313.28 286.94 310.34 284.44 309.14ZM251.75 311.63C250.13 312.82 250.81 314.61 251.03 316.3C251.55 320.32 252.38 324.33 252.48 328.38C252.63 334.5 251.57 340.68 251.22 346.78C250.61 357.3 250.49 367.85 250.3 378.38C250.1 389.38 249.53 400.35 249.16 411.34C248.86 420.04 248.92 429.01 247.36 437.6C246.09 444.6 243.1 451.04 239.94 457.36C238.71 459.83 237.36 461.99 236.52 464.64C235.18 468.86 235.66 473.18 235.29 477.5C234.98 481.13 233.84 484.74 232.99 488.26C231.44 494.65 229.71 501.03 227.84 507.33C227.03 510.07 225.98 512.72 225.36 515.52C224.3 520.28 223.9 525.18 222.94 529.95C222.04 534.45 220.51 538.9 220.09 543.46C219.48 549.98 220.37 556.63 222.79 562.69C223.36 564.12 223.4 565.57 224.36 566.88C228.74 572.88 241.98 575.05 248.26 571.43C251.14 569.77 252.71 566.27 255.19 564.07C257 562.46 259.69 561.31 261.14 559.39C259.93 558.6 257.92 559.93 256.87 560.8C255.43 561.99 253.88 563.12 252.54 564.44C251.1 565.86 249.95 567.52 248.27 568.69C247.6 569.17 246.77 569.19 246.01 569.48C239.36 571.99 231.43 569.51 226.53 564.7C223.27 561.51 222.97 556.82 222.61 552.53C222.3 548.8 223.05 545.53 223.72 541.93C224.96 535.32 226.82 528.7 227.74 522.04C228.38 517.4 229.5 512.78 230.73 508.3C231.3 506.21 231.46 504.01 232.01 501.92C232.96 498.3 234.06 494.62 235.11 491C236.09 487.61 237.32 484.23 238.05 480.78C238.67 477.89 239.09 475.01 238.9 472.04C238.75 469.59 237.86 467.24 238.57 464.77C239.37 461.96 241.58 459.54 242.69 456.82C243.32 455.29 243.55 453.52 244.24 452.04C245.51 449.29 246.78 446.65 247.72 443.74C252.23 429.7 252.35 416.85 252.47 402.27C252.53 393.76 252.89 385.25 252.82 376.73C252.78 369.97 252.42 363.17 252.56 356.42C252.72 348.63 253.45 340.83 253.84 333.05C254.12 327.66 253.2 322.23 253.17 316.85C253.16 315.19 253.55 312.21 251.75 311.63ZM256.45 312.87C255.29 313.36 255.68 315.36 255.81 316.29C256.32 319.82 256.33 323.44 256.36 327.01C256.41 335.24 255.14 343.28 254.83 351.46C254.58 358.39 255.32 365.4 255.54 372.33C255.89 383.4 255.53 394.52 255.1 405.57C254.81 412.95 254.9 420.5 253.73 427.81C252.28 436.88 250.07 445.61 247.02 454.25C246.12 456.8 245.13 459.47 243.93 461.88C243.45 462.87 242.42 463.62 242.13 464.72C240.79 469.84 241.94 475.92 240.75 481.49C237.96 494.55 234.57 507.53 232.19 520.68C231.2 526.16 229.76 531.59 228.4 537C228.12 538.1 228.14 539.25 227.86 540.35C226.72 544.86 225.25 549.45 225.69 554.19C226.27 560.48 228.5 566.3 235.72 567.08C238.64 567.4 242.61 567.69 245.44 566.72C247.87 565.89 249.56 563.9 251.4 562.2C252.83 560.88 254.52 560.12 255.56 558.4C256.94 556.11 257.2 553.36 257.91 550.87C259.93 543.8 261.06 536.44 261.64 529.1C261.93 525.54 261.76 521.89 261.91 518.31C262.12 513.22 262.62 508.18 262.54 503.08C262.48 498.3 261.68 493.6 261.95 488.8C262.44 480.02 262.59 471.21 263.16 462.43C263.59 455.83 264.64 449.29 264.71 442.65C264.77 437.17 263.85 431.67 263.81 426.17C263.76 420.15 264.18 412.94 265.18 407.01C265.67 404.13 267.05 401.07 267.12 398.15C267.16 396.41 266.62 394.74 266.31 393.06C265.98 391.21 265.94 389.3 265.59 387.45C265.21 385.41 264.51 383.4 264 381.39C263.21 378.22 263.13 375.01 262.5 371.83C259.43 356.35 259.02 341 261.13 325.35C261.49 322.71 262.05 317.64 261.23 315.2C260.74 313.72 258 312.22 256.45 312.87ZM584.83 313C584.53 313 583.77 312.97 583.55 313.3C583.1 313.98 583.11 318.06 583.55 318.75C583.64 318.89 584.1 319.14 584.27 319.32C584.27 320.92 584.27 322.52 584.27 324.13C585.13 323.47 584.83 322.15 584.83 320.97C584.83 318.31 584.83 315.66 584.83 313ZM306.63 390.19C304.51 389.87 300.55 384.06 298.81 382.26C296.91 380.3 294.64 378.76 293 376.53C288.91 370.96 288.64 362.75 289.93 356.26C290.55 353.14 294.51 346.01 296.21 343.03C297.02 341.61 298.49 340.13 298.91 338.55C299.53 336.21 297.3 334.3 295.93 332.69C292.77 328.98 290 321.13 285.36 319.35C283.62 318.68 281.37 318.66 279.53 318.27C277.69 317.88 273.72 316 272.09 316.42C270.59 316.8 270.05 321.65 270.17 322.98C270.29 324.46 270.09 326.07 270.38 327.53C271.18 331.6 272.94 338.21 271.52 342.24C270.6 344.85 267.56 344.93 265.21 345.08C264.16 345.15 262.38 345.24 261.94 346.4C261.46 347.65 261.92 349.34 262.04 350.63C262.31 353.68 262.82 356.67 263.03 359.71C263.53 366.85 265.25 377 267.33 383.84C267.78 385.32 268.55 386.74 268.98 388.24C270.4 393.1 271.07 398.27 273.26 402.87C274.21 404.86 275.66 406.55 276.74 408.45C277.66 410.09 278.35 411.9 279.42 413.47C280.6 415.2 282.18 416.58 283.48 418.21C285.01 420.15 286.41 422.23 287.9 424.21C288.96 425.61 289.62 427.23 290.61 428.64C291.57 430.01 292.75 431.28 293.82 432.57C295.71 434.83 297.18 437.42 299.07 439.7C303.69 445.27 309.46 450.58 315.52 454.57C318.63 456.61 322.09 458.13 325.08 460.38C326.78 461.66 328.3 463.26 329.83 464.68C334.14 468.67 339.16 472.58 344.09 475.71C346.75 477.39 349.51 479.18 352.31 480.68C353.73 481.43 355.98 482.08 356.81 483.59C359.39 488.27 353.21 492.23 354.17 495.67C355.82 495.95 356.34 494.61 357.28 493.39C358.71 491.52 360.23 489.73 361.62 487.84C361.99 487.34 362.1 486.75 362.51 486.26C363.24 485.4 364.98 483.58 364.3 482.41C363.8 481.56 362.44 481.15 361.65 480.69C358.65 478.94 355.23 478.22 352.06 476.8C348.98 475.42 346.48 473.24 343.72 471.39C340.13 468.98 336.41 466.63 332.95 464.05C330.65 462.34 328.57 460.35 326.29 458.62C325.68 458.16 324.92 458.03 324.31 457.59C320.96 455.21 317.79 452.05 314.86 449.18C313.98 448.32 313.33 447.2 312.46 446.36C307.84 441.87 303.39 437.14 298.87 432.48C296.37 429.9 293.91 427.19 291.35 424.62C289.55 422.81 287.6 421.27 286.06 419.19C283.58 415.84 281.8 412.12 279.62 408.62C278.3 406.49 276.17 404.66 275.14 402.36C271.9 395.14 270.35 387.44 268.71 379.74C267.07 372.08 265.22 364.43 264 356.68C263.63 354.29 262.17 350.34 263.56 348.21C265.12 349.32 264.88 350.23 265.48 351.89C266.76 355.44 267.47 359.33 268.32 363C269 365.96 270.06 368.85 270.75 371.82C271.48 374.94 271.61 378.19 272.35 381.28C273.77 387.23 275.61 393.42 278.23 398.99C279.64 401.98 282.65 404.79 284.91 407.15C288.23 410.64 290.83 414.83 293.9 418.49C296.93 422.09 299.49 426.09 302.38 429.8C306.86 435.57 311.68 441.46 316.91 446.58C323.14 452.67 330.49 457.25 337.67 462.07C341.06 464.35 344.7 466.38 347.97 468.8C351.86 471.67 356.64 475.55 361.1 477.35C363.25 478.22 366.07 481.46 368.58 479.96C371.67 478.13 373.24 473.99 375.09 471.08C378.02 466.48 381.15 461.2 382.77 455.97C383.3 454.23 383.55 452.39 384.06 450.64C384.68 448.55 385.3 446.31 386.26 444.35C387.48 441.85 389.07 439.31 389.77 436.6C390.27 434.67 390.13 432.78 390.26 430.84C390.49 427.21 390.92 423.23 392.17 419.79C393.67 415.65 395.94 411.75 397.63 407.68C398.96 404.48 399.92 401.17 401.1 397.93C402.32 394.61 403.78 391.41 405.02 388.11C405.75 386.15 406.37 383.97 407.23 382.08C408.21 379.93 409.55 377.98 410.61 375.86C411.94 373.19 412.95 370.17 413.95 367.4C414.75 365.15 417.06 362.07 415.39 359.63C413.69 357.16 410.32 355.44 408.11 353.45C398.25 344.58 386.14 339.88 373.43 336.46C369.59 335.42 365.57 334.94 361.73 333.89C356.81 332.54 351.6 331.61 346.51 331.06C345.14 330.91 342.25 329.94 341.41 331.41C340.79 332.49 342.38 333.52 343 334.23C345.01 336.53 347.06 338.83 348.84 341.33C349.94 342.87 350.6 344.7 351.46 346.39C355.28 353.89 355.2 359.53 350.3 366.37C348.92 368.3 345.73 371.53 343.34 372.05C338.65 373.08 335.11 368.77 332.6 365.51C325.93 356.88 329.47 347.99 320.56 339.92C319.09 338.6 317.48 336.36 315.47 336.11C312.83 338.6 313.94 344.05 313.98 347.34C314.02 350.52 313.47 354.26 314.39 357.35C315.32 360.46 317.85 362.93 319.92 365.27C323.02 368.79 326.31 372.05 329.54 375.43C330.46 376.39 331.15 377.44 332.16 378.31C332.69 378.77 332.92 379.36 333.39 379.85C336.29 382.92 339.86 385.3 337.84 390.17C337.41 391.2 336.51 392.5 335.56 393.1C334 394.08 333.05 392.76 332.4 391.52C330.75 388.39 330.91 386.19 327.84 383.46C325.23 381.15 321.57 380.42 318.91 378.1C313.88 373.74 308.54 362.86 307.78 356.26C307.52 353.91 306.33 346.67 308.61 345.6C309.7 347.47 309.15 350.43 309.31 352.56C309.53 355.53 310.43 358.63 311.39 361.44C313.31 367.06 316.58 374.14 321.32 377.88C323.68 379.74 326.86 380.22 329.26 382.04C331.67 383.87 332.98 387.04 335.53 388.51C337.76 386.42 334.76 383.62 333.1 382.04C331.21 380.24 329.5 378.34 327.64 376.51C324.66 373.57 321.25 371.02 318.33 367.96C314.84 364.3 312.18 359.66 311.98 354.48C311.86 351.45 312.84 344.21 311.63 341.79C310.18 341.42 307.62 341.57 306.34 342.47C305.17 343.3 304.4 345.58 303.87 346.84C302.72 349.55 301.58 351.81 300.95 354.69C298.82 364.37 302.6 372.12 307.41 380.26C310.39 385.29 314 390.7 313.97 396.78C313.95 400.99 312.55 404.44 311.23 408.33C310.7 409.89 310.6 411.94 309.6 413.3C308.81 414.38 306.89 414.6 305.64 414.37C303.03 413.9 301.65 410.97 301.86 408.59C301.93 407.84 304.81 401.6 305.32 401.04C305.59 400.73 306.05 400.54 306.41 400.33C307.35 402.44 305.28 405.72 306.7 407.62C308.43 409.91 310.25 405.17 310.67 404.2C312.41 400.2 312.12 395.42 310.85 391.35C310.25 389.39 308.88 387.62 307.78 385.94C304.3 380.62 296.8 371.74 295.84 365.74C294.91 359.86 295.97 353.15 299.01 348.04C300.15 346.14 303.96 341.83 302.56 339.82C299.7 339.64 297.11 347.49 295.89 349.86C294.81 351.95 293.05 354.24 292.4 356.5C290.58 362.81 291.7 370.12 295.45 375.46C298.24 379.42 306.88 384.86 306.63 390.19ZM435.71 320.42C433.09 318.99 432.49 321.49 431.87 323.47C430.51 327.84 429.47 332.36 428.39 336.82C428.09 338.06 427.13 341.5 428.93 341.97C430.84 342.47 431.57 339.45 431.81 338C432.01 336.82 431.91 335.62 432.14 334.44C432.63 331.94 433.45 329.41 434.2 326.97C434.82 324.91 436.27 322.6 435.71 320.42ZM416.56 356.41C418.43 354.52 416.67 351.85 415.22 350.18C411.89 346.35 406.45 340.43 401.93 338.21C398.33 336.45 394.18 335.36 390.33 334.15C388.57 333.59 386.86 332.67 385.06 332.25C380.1 331.08 374.94 330.83 369.97 329.77C361.25 327.91 353.05 324.46 344.32 322.77C339.9 321.92 335.56 321.24 331.13 320.56C329.45 320.3 326.79 319.6 325.36 320.79C324.7 323.66 331.25 324.86 333.32 325.05C338.26 325.49 342.68 327.62 347.47 328.65C352.28 329.69 357.24 330.08 362.06 331.12C366.31 332.04 370.42 333.54 374.71 334.42C378.09 335.11 381.69 335.07 384.96 336.21C390.82 338.26 396.17 341.14 401.61 344.03C404.35 345.49 407.21 348.05 409.47 350.17C411.77 352.35 413.58 355.1 416.56 356.41ZM339.96 365.19C340.8 368.21 344.64 367.44 346.84 366.49C350.02 365.12 351.56 360.95 351.78 357.77C352.35 349.35 346.64 343.36 341.07 338.09C339.76 336.85 338.69 335.32 337.45 334.01C335.07 331.51 332.08 329.84 329.23 327.96C326.93 326.45 320.74 323 318.14 323.44C318.9 325.13 320.53 325.49 322.09 326.3C324.45 327.54 326.7 329.08 329.04 330.34C331.44 331.63 333.51 333.63 335.42 335.48C336.76 336.78 338.38 337.84 339.58 339.28C342.6 342.9 344.8 346.98 346.48 351.38C347.82 354.87 349.43 360.32 346.72 363.62C344.47 366.36 341.75 363.98 339.96 365.19ZM335.97 360.25C336.53 358.83 334.43 353.76 333.98 352.02C331.56 342.68 328.02 335.76 320.43 329.61C318.68 328.19 313.81 323.76 311.82 324.26C311.74 325.98 314.63 328.16 315.82 329.28C319.9 333.11 323.83 337.67 326.86 342.42C328.47 344.95 329.92 347.6 330.87 350.46C331.53 352.44 331.68 354.43 332.77 356.27C333.48 357.47 334.45 360.36 335.97 360.25ZM266.58 326.84C264.58 328.28 264.91 334.36 265.05 336.63C265.11 337.69 265.04 339.75 266.58 339.78C268.17 339.82 268.07 337.98 268.09 336.9C268.11 335.34 268.22 328.55 267.65 327.44C267.46 327.06 266.95 326.96 266.58 326.84ZM327.01 332.42C327.27 334.02 328.85 335.12 329.99 336.25C331.7 337.92 332.93 340.28 334.08 342.34C335.33 344.6 336.32 347.3 336.88 349.79C337.43 352.26 337.38 355.13 338.38 357.5C339.12 359.24 341.43 361.79 343.59 360.76C346.76 359.24 344.65 353.72 343.59 351.49C339.99 343.97 337.94 340.98 331.31 335.76C330.32 334.99 328.07 332.64 327.01 332.42ZM514.62 337.65C513.46 338.55 513.27 339.88 512.71 341.17C510.85 345.39 511.01 350.5 511.23 355.03C511.53 360.99 512.01 366.56 512.09 372.61C512.13 376 511.52 379.99 512.21 383.32C512.52 384.81 513.82 385.76 514.02 387.44C514.61 392.63 514.35 400.75 516.54 405.49C518.51 402.38 516.29 394.23 516.04 390.46C515.2 378.07 514.91 365.59 515.16 353.15C515.24 349.45 515.62 345.83 515.45 342.13C515.38 340.64 515.64 338.81 514.62 337.65ZM420.45 342.39C419.33 341.47 412.47 340.91 411.43 341.57C413.5 343.79 415.58 346.01 417.66 348.23C419.65 347.51 420.47 344.33 420.45 342.39ZM507.48 342.47C502.61 341.22 494.81 342.1 489.62 342.24C476.97 342.57 464.32 343.23 451.7 344.06C447.56 344.34 443.5 344.17 439.36 343.94C438.14 343.87 435.81 343.27 435 344.49C433.46 346.81 432.05 354.17 431.08 357.3C430.6 358.83 429.41 360.17 429.61 361.89C429.88 364.22 432.01 366.13 432.99 368.13C434.83 371.87 436.5 375.76 438.37 379.49C439.49 381.72 440.92 383.81 441.92 386.11C443.65 390.11 444.72 394.51 445.75 398.72C446.07 400.05 446.06 401.46 446.46 402.76C448.66 410.02 451.17 417.34 454.37 424.21C455.39 426.42 457.01 427.33 458.71 428.93C459.86 430.02 461 431.6 461.84 432.94C463.81 436.08 464.78 439.75 466.25 443.11C467.26 445.45 468.63 447.65 469.99 449.78C471.32 451.84 473.9 454.94 476.45 455.48C478.01 455.8 478.62 453.81 479.5 452.98C480.66 451.88 482.38 450.96 483.75 450.11C486.15 448.61 488.97 447.77 491.54 446.64C495.93 444.71 499.56 440.64 500.99 436.05C505.11 422.85 508.12 409.33 508.66 395.41C509.03 386.07 507.77 376.72 507.56 367.39C507.44 361.86 506.5 356.45 506.97 350.91C507.19 348.38 508.66 344.84 507.48 342.47ZM427.55 346.9C425.04 346.74 425.31 348.95 424.44 350.68C423.84 351.88 423.41 353.29 422.63 354.38C420.67 357.14 418.96 358.96 419.19 362.72C419.27 363.92 418.61 367.46 420.21 367.99C422.02 368.58 422.76 365.16 423.49 364.02C425.95 360.19 426.41 356.21 427.26 351.84C427.55 350.34 428.45 348.27 427.55 346.9ZM202.57 354.21C201.25 353.17 198.72 354.27 197.21 354.75C194.54 355.6 191.07 355.53 188.3 355.39C185.18 355.23 181.91 354.87 178.97 353.77C177.83 353.35 175.91 352.34 174.92 353.11C174.46 354.9 180.26 356.36 181.66 356.63C186.54 357.59 199.39 358.87 202.57 354.21ZM427.55 368.22C426.62 369.15 425.7 371.22 426.37 372.55C427.31 374.42 428.98 375.86 429.94 377.77C432.09 382.05 433.54 386.97 434.76 391.58C436.46 397.98 439.17 404 441.01 410.36C441.67 412.63 441.76 415.02 442.38 417.26C443.27 420.45 444.32 423.73 444.94 427C445.44 429.62 445.59 432.41 446.34 434.97C447.37 438.47 449.48 441.08 451.01 444.32C452.33 447.12 452.56 450.17 453.61 453.01C455.87 459.16 459.75 458.63 465.2 460.31C467.01 460.87 469.51 462.11 471.42 461.35C472.16 461.05 472.26 460.06 471.88 459.46C471.28 458.49 470.1 457.88 469.38 457C468.5 455.95 467.95 454.74 467.36 453.52C464.61 447.81 462.49 441.55 458.56 436.5C457.41 435.02 455.95 433.46 454.33 432.51C452.59 431.48 450.97 431.11 450.09 429.04C448.73 425.82 448.74 422.12 447.64 418.82C446.33 414.95 444.48 411.24 443.21 407.34C441.79 402.93 441.53 398.53 439.68 394.1C437.83 389.65 435.44 385.35 433.25 381.06C431.87 378.35 431.11 375.26 430.03 372.45C429.46 370.97 428.98 369.03 427.55 368.22ZM416.56 373.07C416.18 373.21 415.79 373.28 415.51 373.6C414.46 374.76 412.34 382.1 411.61 384.02C410.06 388.09 408.55 392.17 407.13 396.27C406.29 398.68 405.77 401.22 404.84 403.62C403.14 408.01 401.06 412.16 398.88 416.33C397.3 419.36 395.56 422.48 394.97 425.9C394.81 426.87 394.25 428.24 394.86 429.02C396.37 429.12 396.5 427.19 396.98 425.94C397.97 423.34 399.94 420.11 401.42 417.76C403.22 414.91 403.7 411.56 405.07 408.51C406.15 406.09 407.58 403.83 408.66 401.39C410.93 396.24 412.5 390.84 414.14 385.47C415.06 382.48 417.66 375.92 416.56 373.07ZM512.42 409.28C511.3 410.68 510.46 414.29 511.87 415.68C512.91 413.9 513.25 411.18 512.42 409.28ZM269.64 411.34C269.2 411.36 268.77 411.29 268.45 411.68C267.93 412.29 267.45 416.89 267.35 417.93C266.83 423.23 268.08 433.67 270.43 438.48C273.65 435.05 271.18 427.58 270.44 423.55C270.12 421.8 270.42 419.73 270.33 417.93C270.24 415.95 270.68 413.09 269.64 411.34ZM518.47 418.89C517.66 420.05 518.26 422.82 518.3 424.25C518.45 430.22 520.28 436.19 521.78 441.91C523.62 448.9 522.99 456.52 524.42 463.52C525.63 469.48 526.69 475.65 528.38 481.47C530.31 488.12 532.36 494.73 533.93 501.45C535.37 507.57 536.56 513.81 538.35 519.85C539.89 525.08 542.32 530.29 543.17 535.69C543.97 540.69 543.79 545.57 544.17 550.6C544.26 551.88 544.19 554.99 546.21 554.65C547.62 554.42 547.66 552.79 547.63 551.7C547.58 548.76 547.08 545.81 546.59 542.91C545.78 538.17 545.09 533.17 543.7 528.56C542.85 525.76 541.19 523.2 540.31 520.38C539.01 516.27 538.06 510.95 537.61 506.65C537.09 501.71 536.78 496.69 535.66 491.82C533.61 482.91 530.27 474.37 527.8 465.6C525.84 458.64 524.38 451.44 523.15 444.36C522.84 442.59 522.87 440.74 522.58 438.97C521.85 434.6 521.07 430.25 520.27 425.9C519.94 424.16 519.64 420.01 518.47 418.89ZM404.75 422.12C402.78 423.19 402.84 426.67 402.88 428.64C403 435.32 401.61 441.76 398.73 447.78C397.89 449.55 395.1 453.13 396.51 454.86C398.74 453.56 399.94 450.66 401.01 448.42C403.67 442.86 403.68 436.52 404.2 430.46C404.34 428.85 405.8 422.89 404.75 422.12ZM509.68 424.31C507.88 426.2 507.73 429 506.81 431.39C504.78 436.71 502.85 442.62 498.96 446.91C495.15 451.11 489.95 452.68 484.89 454.79C482.96 455.6 480.85 455.92 479.33 457.49C479.95 458.29 480.56 459.4 481.66 459.57C482.78 459.74 483.83 458.77 484.76 458.26C487.06 457 489.18 455.57 491.44 454.21C494.1 452.61 497.48 450.94 499.66 448.7C503.99 444.24 506.41 438.62 508.07 432.71C508.74 430.3 510.92 426.72 509.68 424.31ZM200.66 435.02C198.65 438.42 197.86 445.26 197.87 449.25C197.87 451.22 197.86 453.04 199.56 454.3C201.26 453.29 200.83 451.57 200.8 449.8C200.75 446.68 200.61 443.57 200.8 440.46C200.9 438.76 201.35 436.55 200.66 435.02ZM206.43 441.1C204.43 441.33 204.83 444.36 204.66 445.95C204.2 450.35 202.72 456.67 205.64 460.51C207.9 461.03 208.51 458.2 208.68 456.38C209.01 453.03 207.88 449.25 207.34 445.95C207.09 444.43 207.22 442.42 206.43 441.1ZM271.35 446.5C270.89 449.09 270.62 452.93 271.49 455.49C272.33 457.93 273.79 460.07 274.03 462.72C274.24 464.94 273.67 466.92 273.44 469.1C273.14 471.87 273.16 474.75 273.22 477.54C273.35 484.53 274.95 491.36 274.05 498.41C273.77 500.62 272.7 502.6 272.24 504.74C270.93 510.83 269.91 517.2 269.48 523.41C269.38 524.89 268.65 531.18 270.7 531.35C272.73 531.53 274.94 528.95 275.58 527.29C276.76 524.22 275.4 516.61 275.4 512.97C275.4 503.35 278.55 494.04 278.74 484.41C278.81 480.49 278.48 476.22 277.59 472.39C276.93 469.58 276.07 466.72 276.05 463.8C276.02 459.03 276.43 454.44 274.15 450.05C273.42 448.67 273.02 446.74 271.35 446.5ZM478.91 463.35C477.7 462.85 476.65 464.41 475.7 465.13C472.69 467.39 469.95 470.08 466.74 472.09C461.21 475.56 454.48 476.1 448.23 477.25C443.34 478.14 438.86 480.18 433.86 480.72C426.51 481.51 419 481.28 411.61 481.23C406.03 481.19 400.43 481.5 394.86 481.03C391.63 480.76 388.52 479.94 385.24 479.78C383.72 479.71 382.35 479.16 381.33 480.56C383.4 482.21 386.55 482.03 389.09 482.05C393.67 482.09 398.25 482.4 402.82 482.51C417.76 482.85 432.6 485.76 447.48 482.76C451.63 481.92 455.48 479.8 459.3 478.11C461.74 477.03 464.33 476.2 466.56 474.67C469.29 472.8 471.91 470.41 474.38 468.21C475.66 467.07 478.82 465.07 478.91 463.35ZM370.69 482.19C369.05 481.99 367.85 484.02 366.89 485.15C365.97 486.24 365.58 487.61 364.74 488.75C362.81 491.36 360.54 493.71 358.25 496.01C357.7 496.55 356.98 496.93 356.44 497.48C355.05 498.9 354.06 500.63 352.91 502.2C351.25 504.46 348.8 506.77 346.62 508.55C343.45 511.14 340 513.6 336.62 515.86C332.99 518.28 328.92 520 325.25 522.34C322.2 524.27 319.6 526.76 316.71 528.9C313.84 531.04 311.05 533.29 307.89 534.92C307.36 535.19 306.73 535.18 306.2 535.43C303.68 536.6 301.23 537.77 298.64 538.83C291.66 541.67 284.16 543.16 277.17 545.94C273.73 547.31 270.15 548.23 266.8 549.85C265.45 550.5 263.77 551.05 263.29 552.53C265.31 553.18 268.11 551.06 270.15 550.44C276.69 548.44 283.17 546.33 289.63 544.1C297.1 541.54 304.62 538.11 311.66 534.57C314.06 533.36 316.18 531.52 318.4 530.04C323.14 526.89 327.87 523.75 332.61 520.62C334.49 519.37 336.08 517.65 337.92 516.34C340.33 514.62 343.09 513.28 345.47 511.51C348.89 508.97 352.02 505.94 355.16 503.08C361.14 497.64 364.24 493.93 367.91 486.69C368.69 485.16 370.69 484 370.69 482.19Z" fill="#000000" fill-rule="evenodd" stroke="#000000" stroke-width="0.25" stroke-linejoin="round"/>
</svg>
