<svg xmlns="http://www.w3.org/2000/svg" viewBox="0 0 40 160" width="40" height="160"><defs><path id="petal" d="M0-6C-5-11-4-18 0-18 4-17 4-10 0-6Z" fill="#f5e8ce"/><g id="flower"><use href="#petal" transform="rotate(0)"/><use href="#petal" transform="rotate(38)"/><use href="#petal" transform="rotate(72)"/><use href="#petal" transform="rotate(110)"/><use href="#petal" transform="rotate(144)"/><use href="#petal" transform="rotate(182)"/><use href="#petal" transform="rotate(216)"/><use href="#petal" transform="rotate(254)"/><use href="#petal" transform="rotate(288)"/><use href="#petal" transform="rotate(326)"/><circle r="2.4" fill="#e2b36d"/></g><g id="leaves" fill="#f5e8ce"><path d="M20 7Q6 7 8-3q10-1 12 10ZM20 7Q33 7 32-3q-10-1-12 10ZM20-7Q8-7 9-17q10 0 11 10ZM20-7q12 0 11-10-10 0-11 10Z"/></g></defs><rect width="40" height="160" fill="#824a36"/><use href="#flower" transform="translate(20 40) rotate(-7)"/><use href="#flower" transform="translate(20 120) rotate(7)"/><use href="#leaves"/><use href="#leaves" transform="translate(0 80)"/><use href="#leaves" transform="translate(0 160)"/></svg>
